<svg xmlns="http://www.w3.org/2000/svg" viewBox="0 0 64 64"><path fill="#35823f" d="M57.51,40.14,56,39.26l-1.39-.85-3.25-2L47.34,34v-3.9a3.21,3.21,0,0,0-.14-.92,3.12,3.12,0,0,0-.18-.42L45.67,26a.21.21,0,0,0-.1-.09.23.23,0,0,0-.3.09l-1.34,2.76a3.11,3.11,0,0,0-.3,1.33v1.64L40.7,30a1.16,1.16,0,0,1-.52-.63l-3.33-9.45s0-.05,0-.07V18.27a15.83,15.83,0,0,0-.38-3.5c-.1-.42-.21-.83-.35-1.24,0-.11-.06-.22-.08-.32L32.55,2.75A.56.56,0,0,0,32,2.33a.55.55,0,0,0-.28.09l-.07.07a.24.24,0,0,0-.08.06.64.64,0,0,0-.11.2L28,13.19c0,.11-.07.23-.09.34-.13.41-.24.82-.34,1.24a16.09,16.09,0,0,0-.39,3.52v1.55a.06.06,0,0,0,0,0L25.23,25.3l-1.41,4a1.27,1.27,0,0,1-.53.63l-2.91,1.77V30.09a2.66,2.66,0,0,0-.16-.92,1.62,1.62,0,0,0-.17-.41L18.72,26a.2.2,0,0,0-.2-.11.2.2,0,0,0-.2.11L17,28.75a3,3,0,0,0-.16.42,3.22,3.22,0,0,0-.15.92V34l-4.06,2.46V33.33a2.15,2.15,0,0,0-.13-.75,1.4,1.4,0,0,0-.13-.34L11.16,30a.14.14,0,0,0-.11-.08.21.21,0,0,0-.25.08L9.63,32.23a3.68,3.68,0,0,0-.15.35,2.48,2.48,0,0,0-.13.76v5.07L6.49,40.14a1.23,1.23,0,0,0-.58,1v1.54a1.21,1.21,0,0,0,.89,1.16,1.1,1.1,0,0,0,.31,0H27.16V47.7l-1.07.46-8.63,3.68a.79.79,0,0,0-.49.73V55.1s1.43,0,3.44,0h8.81a4.63,4.63,0,0,0,1.36.66c.24,3.46.77,5.9,1.41,5.9a.29.29,0,0,0,.17-.06c.56-.38,1-2.69,1.25-5.84a4,4,0,0,0,1.27-.61l.09,0H36.4c4.62,0,10.62,0,10.62,0V52.57a.79.79,0,0,0-.49-.73l-2.18-.93L36.83,47.7V43.91H56.88a1.21,1.21,0,0,0,1.21-1.2V41.17A1.23,1.23,0,0,0,57.51,40.14Z"/><path fill="#fff" d="M33.63,36.27V31.2a2.49,2.49,0,0,0-.14-.76,2.17,2.17,0,0,0-.15-.35l-1.18-2.27a.17.17,0,0,0-.09-.08.2.2,0,0,0-.25.08L30.64,30.1a3.45,3.45,0,0,0-.14.34,2.14,2.14,0,0,0-.12.75V34.3l1.69,1Z"/><path fill="#35823f" d="M36.1,13.53a9.91,9.91,0,0,1-8.21,0c0-.11.07-.23.09-.34l3.5-10.44A.57.57,0,0,1,32,2.33a.56.56,0,0,1,.53.42L36,13.21C36,13.31,36.08,13.42,36.1,13.53Z"/><path fill="#35823f" d="M36.45,14.77c-.1-.42-.21-.83-.35-1.24a9.69,9.69,0,0,1-2,.67,10.39,10.39,0,0,1-2.1.22,9.74,9.74,0,0,1-4.1-.89c-.13.41-.24.82-.34,1.24a16.09,16.09,0,0,0-.39,3.52V51.16a4.82,4.82,0,0,0,1.42,3.41,3.73,3.73,0,0,0,.64.54,4.63,4.63,0,0,0,1.36.66c0-.22,0-.44,0-.66-.05-1-.07-2-.07-3.11,0-.59,0-1.17,0-1.73.12-4.51.75-7.93,1.51-7.93s1.4,3.42,1.52,7.93c0,.56,0,1.14,0,1.73,0,1.08,0,2.13-.07,3.1,0,.23,0,.45-.05.67a4,4,0,0,0,1.27-.61l.09,0h0a4.8,4.8,0,0,0,2.06-3.94V18.27A15.83,15.83,0,0,0,36.45,14.77ZM34.68,25c0,.42-.09.83-.15,1.22-.39,2.53-1.38,4.31-2.54,4.31s-2.15-1.81-2.53-4.37h0a16.45,16.45,0,0,1,0-5.05v0c.41-2.5,1.38-4.25,2.52-4.25s2.11,1.73,2.53,4.19v0c.07.44.13.91.16,1.4s0,.82,0,1.24S34.71,24.6,34.68,25Z"/><path fill="#ed3536" d="M36.1,13.53a9.69,9.69,0,0,1-2,.67,10.39,10.39,0,0,1-2.1.22,9.74,9.74,0,0,1-4.1-.89c0-.11.07-.23.09-.34l3.5-10.44a.64.64,0,0,1,.11-.2A.51.51,0,0,1,32,2.33a.56.56,0,0,1,.53.42L36,13.21C36,13.31,36.08,13.42,36.1,13.53Z"/><path fill="#ccc" d="M20.38 30.09v1.64l-1.86 1.12L16.65 34V30.09a3.22 3.22 0 01.15-.92 3 3 0 01.16-.42L18.32 26a.2.2 0 01.2-.11.2.2 0 01.2.11l1.33 2.76a1.62 1.62 0 01.17.41A2.66 2.66 0 0120.38 30.09zM12.59 33.33v3.11l-1.54.94-1.7 1V33.34a2.48 2.48 0 01.13-.76 3.68 3.68 0 01.15-.35L10.8 30a.21.21 0 01.25-.08.14.14 0 01.11.08l1.17 2.28a1.4 1.4 0 01.13.34A2.15 2.15 0 0112.59 33.33z"/><path fill="#35823f" d="M27.16,19.84V43.91h-20a1.1,1.1,0,0,1-.31,0,1.21,1.21,0,0,1-.89-1.16V41.17a1.23,1.23,0,0,1,.58-1l2.86-1.73,3.24-2L16.65,34l3.73-2.25L23.29,30a1.27,1.27,0,0,0,.53-.63l1.41-4,1.92-5.42A.06.06,0,0,1,27.16,19.84Z"/><path fill="#333" d="M34.73,23.71a15.58,15.58,0,0,1-.2,2.54c-.39,2.53-1.38,4.31-2.54,4.31a1.32,1.32,0,0,1-.47-.1c-.95-.42-1.73-2.07-2.06-4.27h0a16.45,16.45,0,0,1,0-5.05v0c.41-2.5,1.38-4.25,2.52-4.25H32c1.11.05,2.07,1.77,2.48,4.19v0A16.72,16.72,0,0,1,34.73,23.71Z"/><path fill="#ccc" d="M47.34 30.09V34l-1.77-1.08-1.94-1.18V30.09a3.11 3.11 0 01.3-1.33L45.27 26a.23.23 0 01.3-.09.21.21 0 01.1.09L47 28.75a3.12 3.12 0 01.18.42A3.21 3.21 0 0147.34 30.09zM54.65 33.34v5.07l-1.56-.95-1.69-1V33.33a2.14 2.14 0 01.12-.75c0-.12.09-.23.14-.34L52.84 30a.21.21 0 01.25-.08.14.14 0 01.09.08l1.18 2.27a3.73 3.73 0 01.16.35A2.82 2.82 0 0154.65 33.34z"/><path fill="#35823f" d="M58.09,41.17v1.54a1.21,1.21,0,0,1-1.21,1.2H36.83V19.81s0,.05,0,.07l3.33,9.45a1.16,1.16,0,0,0,.52.63l2.93,1.77L47.34,34l4.06,2.45,3.25,2,1.39.85,1.47.88A1.23,1.23,0,0,1,58.09,41.17Z"/><path fill="#333" d="M33.53 52c0 1.08 0 2.13-.07 3.1 0 .23 0 .45-.05.67-.21 3.15-.69 5.46-1.25 5.84a.29.29 0 01-.17.06c-.64 0-1.17-2.44-1.41-5.9 0-.22 0-.44 0-.66-.05-1-.07-2-.07-3.11 0-.59 0-1.17 0-1.73.12-4.51.75-7.93 1.51-7.93a.29.29 0 01.17.06c.68.47 1.24 3.7 1.35 7.87C33.52 50.83 33.53 51.41 33.53 52zM29.22 55.11H20.41c-2 0-3.44 0-3.44 0V52.57a.79.79 0 01.49-.73l8.63-3.68 1.07-.46v3.46a4.82 4.82 0 001.42 3.41A3.73 3.73 0 0029.22 55.11zM47 52.57V55.1s-6 0-10.62 0H34.77a4.8 4.8 0 002.06-3.94V47.7l7.52 3.21 2.18.93A.79.79 0 0147 52.57z"/><path d="M36.83,18.27V51.16a4.8,4.8,0,0,1-2.06,3.94h0l-.09,0V17s-.23-1.14-.59-2.81c-.73-3.47-2-9.22-2.5-11.65A.51.51,0,0,1,32,2.33a.56.56,0,0,1,.53.42L36,13.21c0,.1.06.21.08.32.14.41.25.82.35,1.24A15.83,15.83,0,0,1,36.83,18.27Z" opacity=".2"/><path d="M34.73 23.71a15.58 15.58 0 01-.2 2.54c-.39 2.53-1.38 4.31-2.54 4.31a1.32 1.32 0 01-.47-.1 36.89 36.89 0 001.12-8.22 24 24 0 00-.3-3.59c-.07-.47-.25-1.14-.3-1.79 1.11.05 2.07 1.77 2.48 4.19v0A16.72 16.72 0 0134.73 23.71zM54.65 33.34v5.07l-1.56-.95V29.88a.14.14 0 01.09.08l1.18 2.27a3.73 3.73 0 01.16.35A2.82 2.82 0 0154.65 33.34zM47.34 30.09V34l-1.77-1.08v-7a.21.21 0 01.1.09L47 28.75a3.12 3.12 0 01.18.42A3.21 3.21 0 0147.34 30.09zM58.09 41.17v1.54a1.21 1.21 0 01-1.21 1.2H36.83V41.64l11.59-.55a26 26 0 004.41-.46A9 9 0 0056 39.27h0l1.47.88A1.23 1.23 0 0158.09 41.17zM20.38 30.09v1.64l-1.86 1.12v-7a.2.2 0 01.2.11l1.33 2.76a1.62 1.62 0 01.17.41A2.66 2.66 0 0120.38 30.09zM12.59 33.33v3.11l-1.54.94v-7.5a.14.14 0 01.11.08l1.17 2.28a1.4 1.4 0 01.13.34A2.15 2.15 0 0112.59 33.33z" opacity=".2"/><path d="M27.16 19.84V43.91h-20a1.1 1.1 0 01-.31 0c2.92-.64 5.83-1.34 8.71-2.13 2.25-.62 4.58-1.33 6.27-3 2-1.87 2.77-4.66 3.06-7.36.2-2 .33-4.1.39-6.13l1.92-5.42A.06.06 0 0127.16 19.84zM33.53 52c0 1.08 0 2.13-.07 3.1 0 .23 0 .45-.05.67-.21 3.15-.69 5.46-1.25 5.84V42.4c.68.47 1.24 3.7 1.35 7.87C33.52 50.83 33.53 51.41 33.53 52zM47 52.57V55.1s-6 0-10.62 0A34 34 0 0040 53.68a19.36 19.36 0 004-2.47l.34-.3 2.18.93A.79.79 0 0147 52.57zM29.22 55.11H20.41A11 11 0 0023.9 53a6.94 6.94 0 002.18-3.92c0-.29 0-.62 0-.94l1.07-.46v3.46a4.82 4.82 0 001.42 3.41A3.73 3.73 0 0029.22 55.11z" opacity=".2"/><path fill="#fff" d="M31 7.41c-.49 1.69-1 3.37-1.48 5.06a.45.45 0 00.87.24c.49-1.69 1-3.37 1.48-5.06A.45.45 0 0031 7.41zM31.59 19.5a.44.44 0 00-.55.32 28.28 28.28 0 00-.13 6.63c.06.57 1 .57.9 0a27.4 27.4 0 01.09-6.4A.45.45 0 0031.59 19.5zM28.3 30.12V50.31a.45.45 0 00.9 0V30.12A.45.45 0 0028.3 30.12zM22.5 31.92a117.65 117.65 0 01-14.34 8c-.53.25-.07 1 .45.78a117 117 0 0014.34-8C23.44 32.38 23 31.6 22.5 31.92zM29.08 14.8a.45.45 0 00-.55.31c-.2 1.41-.35 2.82-.46 4.23a.45.45 0 00.45.45.46.46 0 00.45-.45c.1-1.33.24-2.66.43-4A.46.46 0 0029.08 14.8zM52.68 38.29L39.94 31.51c-.52-.27-1 .5-.46.78l12.74 6.78C52.73 39.34 53.19 38.56 52.68 38.29zM19.37 52.91a29.91 29.91 0 015.06-2 .45.45 0 00-.23-.87 30.26 30.26 0 00-5.28 2.06C18.4 52.4 18.85 53.17 19.37 52.91zM37.57 49.72a.46.46 0 00.31.55l3.91 1.57a.45.45 0 00.55-.31A.46.46 0 0042 51l-3.91-1.56A.45.45 0 0037.57 49.72z" opacity=".2"/><path d="M35.06,22.44c0-.48-.09-1-.17-1.44h0s0,0,0-.07c0-.32-.12-.63-.19-.92,0-.09,0-.17-.07-.26s-.11-.41-.18-.6C33.86,17.47,33,16.48,32,16.48c-1.34,0-2.44,1.75-2.89,4.58a14.64,14.64,0,0,0-.22,2.65,17.76,17.76,0,0,0,.19,2.54c.05.31.11.61.18.91s.09.36.14.54a2,2,0,0,0,.07.26c.06.2.12.39.19.57l.06.14a4,4,0,0,0,.24.55l0,.07a3.68,3.68,0,0,0,.86,1.15l.15.14.14.09.24.14.09,0,.09,0a1.41,1.41,0,0,0,.44.08c1.17,0,2.17-1.36,2.71-3.61.07-.33.14-.67.2-1s.12-.82.15-1.25,0-.89,0-1.35,0-.86,0-1.26ZM34.31,25c0,.42-.08.82-.14,1.21-.38,2.35-1.27,4-2.17,4a1,1,0,0,1-.65-.29.53.53,0,0,1-.13-.13l-.17-.18-.16-.23-.11-.19-.17-.31-.09-.2-.15-.38c0-.07-.05-.15-.08-.22s-.09-.28-.14-.44,0-.18-.07-.27S30,27.06,30,26.9s-.1-.51-.14-.78a14.7,14.7,0,0,1-.19-2.41,15.67,15.67,0,0,1,.2-2.54c.37-2.3,1.25-3.91,2.17-3.93a.65.65,0,0,1,.2,0l.13,0,.2.12a.94.94,0,0,1,.12.09,1.9,1.9,0,0,1,.19.21l.12.13a3.45,3.45,0,0,1,.2.32,1.1,1.1,0,0,1,.09.14,3.31,3.31,0,0,1,.24.5l0,.06a10.51,10.51,0,0,1,.62,2.25,12.6,12.6,0,0,1,.16,1.36c0,.4,0,.8,0,1.21S34.34,24.57,34.31,25Z"/><path d="M57.7,39.82,55,38.2V33.34a2.9,2.9,0,0,0-.15-.88,3.7,3.7,0,0,0-.17-.4L53.52,29.8a.49.49,0,0,0-.32-.28.59.59,0,0,0-.7.27l-1.18,2.3c0,.12-.11.24-.15.36a2.54,2.54,0,0,0-.15.88v2.44l-3.3-2V30.09A3.49,3.49,0,0,0,47.55,29c-.06-.15-.12-.31-.19-.46L46,25.84a.52.52,0,0,0-.29-.27.6.6,0,0,0-.79.27L43.6,28.58a4.37,4.37,0,0,0-.19.48,3.4,3.4,0,0,0-.16,1v1l-2.37-1.43a.81.81,0,0,1-.34-.43l-3.33-9.45V18.27a16.16,16.16,0,0,0-.39-3.58,12,12,0,0,0-.35-1.28h0L32.91,2.62A.94.94,0,0,0,32,2a.86.86,0,0,0-.72.35.77.77,0,0,0-.18.32L27.62,13.09l-.09.33h0c-.13.43-.24.84-.33,1.26a16.15,16.15,0,0,0-.4,3.6v1.47L23.46,29.2a.83.83,0,0,1-.36.44l-2.35,1.42v-1a3.16,3.16,0,0,0-.17-1,1.93,1.93,0,0,0-.19-.47l-1.32-2.75a.57.57,0,0,0-.49-.33h0a.57.57,0,0,0-.59.31l-1.36,2.76c-.06.15-.13.32-.17.46a3.38,3.38,0,0,0-.17,1v3.68l-3.31,2V33.33a2.38,2.38,0,0,0-.14-.84,2.06,2.06,0,0,0-.17-.42L11.5,29.79a.5.5,0,0,0-.34-.27.58.58,0,0,0-.69.27L9.28,32.08c0,.12-.11.25-.15.37a2.6,2.6,0,0,0-.15.89V38.2L6.3,39.82a1.59,1.59,0,0,0-.76,1.35v1.54A1.58,1.58,0,0,0,6.7,44.23a1.37,1.37,0,0,0,.42.06H26.79v3.16l-9.49,4a1.19,1.19,0,0,0-.7,1.07V55.1c0,.4,0,.4,3.82.4h8.7a5.33,5.33,0,0,0,1.1.54c.3,4,.89,6,1.78,6a.74.74,0,0,0,.38-.12c.86-.59,1.24-3.83,1.39-5.88a4.36,4.36,0,0,0,1.1-.55h1.52l7.68,0c3.07,0,3.11,0,3.21-.13a.39.39,0,0,0,.11-.27V52.57a1.18,1.18,0,0,0-.71-1.07l-9.48-4V44.29H56.88a1.58,1.58,0,0,0,1.58-1.58V41.17A1.59,1.59,0,0,0,57.7,39.82ZM31.84,2.87a.67.67,0,0,1,.07-.11.13.13,0,0,1,.12,0c.1,0,.15.11.17.16l3.45,10.44-.44.17-.28.1a7.86,7.86,0,0,1-.92.25A9.74,9.74,0,0,1,32.6,14h-.09a11.56,11.56,0,0,1-1.32,0H31a10.54,10.54,0,0,1-1.25-.22l-.17,0a7.77,7.77,0,0,1-1.18-.39l-.1,0ZM17,30.09a2.4,2.4,0,0,1,.14-.82,1.81,1.81,0,0,1,.13-.35l1.22-2.48,1.2,2.5a1.54,1.54,0,0,1,.15.35,2.44,2.44,0,0,1,.13.8v1.43l-.61.37L17,33.32Zm-7.3,3.25a2,2,0,0,1,.11-.64,3.11,3.11,0,0,1,.12-.3l1-2,1,2a1.45,1.45,0,0,1,.11.29,1.8,1.8,0,0,1,.11.62v2.9L11,37l-1.27.77ZM7.12,43.54a.73.73,0,0,1-.22,0,.83.83,0,0,1-.61-.8V41.17a.83.83,0,0,1,.4-.71l2.85-1.73h0l1.56-.95,8.44-5.11,1-.62h0l2.91-1.77a1.5,1.5,0,0,0,.69-.83L26.79,22V43.54Zm13.3,11.21-3.07,0V52.57a.43.43,0,0,1,.25-.39l9.19-3.91v2.89a4.87,4.87,0,0,0,.1,1c0,.1.06.2.09.31s.11.43.19.64.13.23.18.35a5.45,5.45,0,0,0,.29.53c.08.12.18.23.27.34a3,3,0,0,0,.31.4Zm12.66.33,0,.67h0c-.25,3.53-.74,5.18-1.05,5.51-.29-.3-.79-2-1-5.51l0-.66c-.05-1-.08-2.08-.08-3.09,0-.58,0-1.16,0-1.72s0-1.16.07-1.69c.21-3.7.75-5.68,1-5.88a4.38,4.38,0,0,1,.7,2.11h0c.06.31.11.65.16,1s.07.63.11,1l0,.3c0,.43.07.9.1,1.39,0,0,0,.05,0,.09,0,.52,0,1.09.07,1.68s0,1.14,0,1.72C33.16,53,33.13,54.05,33.08,55.08Zm1.48-.29,0,0-.06,0a3.58,3.58,0,0,1-.65.37v-.1c.05-1,.08-2.09.08-3.12,0-.59,0-1.18,0-1.74,0-.08,0-.2,0-.32a30.54,30.54,0,0,0-.74-6.37h0c0-.12-.07-.23-.1-.34S33,43,32.93,43a.3.3,0,0,0,0-.08,1.79,1.79,0,0,0-.52-.78A.67.67,0,0,0,32,42c-1.51,0-1.82,5.81-1.89,8.3,0,.56,0,1.15,0,1.74,0,1,0,2.08.08,3.13v.09a4.23,4.23,0,0,1-.74-.42,3.74,3.74,0,0,1-.59-.5,4.38,4.38,0,0,1-1.3-3.14V18.29a16,16,0,0,1,.38-3.44c.06-.27.13-.54.2-.81l.53.19.13,0c.31.1.62.19.94.26l.22,0a7.56,7.56,0,0,0,.83.14l.17,0c.33,0,.66,0,1,0h.22l.76,0,.28,0c.33,0,.65-.09,1-.15a8.36,8.36,0,0,0,1-.27l.3-.11c.14,0,.29-.09.43-.15q.12.39.21.81h0a15.32,15.32,0,0,1,.37,3.42V51.16A4.48,4.48,0,0,1,34.56,54.79Zm11.82-2.61a.42.42,0,0,1,.26.39v2.17c-1.29,0-6,0-10.25,0h-.61a.18.18,0,0,1,0-.07,5.7,5.7,0,0,0,.52-.67s0-.09.08-.14a5.45,5.45,0,0,0,.35-.68l.06-.13a5.78,5.78,0,0,0,.24-.81,1.06,1.06,0,0,1,0-.19,5.14,5.14,0,0,0,.08-.88V48.27Zm5.39-18.85a1.9,1.9,0,0,1,.11-.63,2.85,2.85,0,0,1,.12-.29l1-2,1,2c0,.09.09.19.12.28a2.33,2.33,0,0,1,.11.65v4.4l-.78-.47-1.72-1ZM44,30.09a2.89,2.89,0,0,1,.12-.81c.05-.12.09-.23.15-.36l1.2-2.48,1.21,2.47a3.08,3.08,0,0,1,.16.38,2.44,2.44,0,0,1,.13.8v3.23l-.92-.55-2-1.25ZM57.71,42.71a.83.83,0,0,1-.83.83H37.2V22l2.63,7.46a1.54,1.54,0,0,0,.67.83l5,3,1.62,1h0l4,2.45h0l3.25,2h0l2.85,1.73a.83.83,0,0,1,.4.71Z"/></svg>