<svg xmlns="http://www.w3.org/2000/svg" viewBox="0 0 51 51"><path fill="#B6B9BA" d="m31.39 44.69-.005 1.417c-.003.867-.573 1.733-1.71 2.394-2.293 1.332-6.02 1.332-8.326 0-1.16-.67-1.74-1.55-1.738-2.428l.005-1.416c-.003.878.577 1.758 1.738 2.428 2.306 1.331 6.033 1.332 8.325 0 1.138-.662 1.708-1.527 1.71-2.394z"/><path fill="#A2A4A5" d="M29.679 47.085c-1.244.722-2.91 1.052-4.542.99v1.417c1.63.06 3.295-.269 4.537-.99 1.138-.662 1.708-1.528 1.71-2.395l.005-1.416c-.002.867-.572 1.732-1.71 2.394z"/><path fill="#CFD2D3" d="M29.651 42.263c2.307 1.331 2.32 3.49.028 4.822-2.292 1.332-6.02 1.331-8.325 0-2.307-1.332-2.32-3.49-.028-4.822 2.292-1.332 6.019-1.332 8.325 0z"/><path fill="#434240" d="m30.413 41.678-.004 2.57c-.002.722-.477 1.444-1.427 1.996-1.912 1.111-5.021 1.111-6.945 0-.968-.559-1.452-1.293-1.45-2.025l.004-2.57c-.002.733.482 1.467 1.45 2.026 1.924 1.11 5.033 1.111 6.945 0 .95-.552 1.425-1.274 1.427-1.997z"/><path fill="#434240" d="m20.591 41.65-.004 2.569c0 .05.003.102.007.152l.006-2.545a1.663 1.663 0 0 1-.009-.176z"/><path fill="#434240" d="M22.041 43.675c-.89-.514-1.37-1.176-1.44-1.849l-.007 2.545c.06.682.542 1.353 1.443 1.873a6.141 6.141 0 0 0 1.815.666l.006-2.569a6.143 6.143 0 0 1-1.817-.666zm8.372-1.997c0 .085-.007.17-.02.255l-.007 2.586a1.67 1.67 0 0 0 .023-.272l.004-2.57z"/><path fill="#21201F" d="M28.986 43.675c-.543.316-1.182.541-1.864.677l-.006 2.57c.682-.136 1.323-.362 1.866-.678.83-.482 1.298-1.095 1.404-1.725l.006-2.586c-.1.636-.568 1.255-1.406 1.742z"/><path fill="#2D2C2B" d="m23.858 44.341-.006 2.569a8.352 8.352 0 0 0 3.264.012l.006-2.57a8.352 8.352 0 0 1-3.264-.01z"/><path fill="#CFD2D3" d="M28.963 39.652c1.924 1.111 1.934 2.912.023 4.023-1.912 1.111-5.021 1.11-6.945 0-1.924-1.11-1.934-2.912-.023-4.023 1.912-1.11 5.02-1.11 6.945 0z"/><path fill="#A2A4A5" d="m31.42 26.987-.066 14.556c-.002.867-.572 1.733-1.71 2.394-2.292 1.332-6.02 1.332-8.326 0-1.16-.67-1.74-1.55-1.738-2.428l.066-14.556c-.002.878.577 1.758 1.738 2.428 2.306 1.332 6.034 1.332 8.325 0 1.139-.662 1.708-1.527 1.71-2.394z"/><path fill="#CFD2D3" d="M29.704 29.382c-2.282 1.334-6.016 1.334-8.32 0-1.376-.8-1.92-1.888-1.653-2.912h-.021l.565-1.962 1.44-5.046h7.605l1.472 5.078.566 1.93h-.022c.267 1.024-.256 2.112-1.632 2.912z"/><path fill="#CFD2D3" d="M30.792 24.54c-.266.32-.63.618-1.088.885-2.282 1.333-6.016 1.333-8.32 0-.47-.277-.842-.587-1.11-.917l1.44-5.046h7.606l1.472 5.078z"/><path fill="#A2A4A5" d="m29.655 14.893-.003 5.48c-.002.606-.4 1.212-1.197 1.675-1.604.933-4.213.933-5.828 0-.812-.469-1.218-1.084-1.216-1.7l.003-5.479c-.002.615.404 1.23 1.217 1.7 1.614.932 4.223.932 5.827 0 .797-.463 1.196-1.069 1.197-1.676z"/><path fill="#B6B9BA" d="M22.63 16.569c-.812-.47-1.218-1.085-1.216-1.7l-.003 5.48c-.002.615.404 1.23 1.216 1.7l.067.036.003-5.48c-.022-.012-.045-.023-.066-.036z"/><path fill="#A2A4A5" d="m22.697 16.605-.003 5.48c.746.412 1.692.633 2.65.66l.002-5.48c-.958-.027-1.903-.247-2.65-.66zm5.761-.036c-.146.085-.3.162-.462.231l-.003 5.48c.161-.07.316-.147.462-.232.797-.463 1.195-1.069 1.197-1.675l.003-5.48c-.001.607-.4 1.213-1.197 1.676z"/><path fill="#B6B9BA" d="m25.346 17.265-.002 5.48c.929.026 1.869-.13 2.65-.466l.002-5.479c-.78.336-1.72.491-2.65.465z"/><path fill="#CFD2D3" d="M28.439 13.194c1.614.932 1.623 2.443.02 3.375-1.605.932-4.214.932-5.828 0-1.615-.932-1.624-2.443-.02-3.376 1.604-.932 4.213-.932 5.828 0z"/><path fill="#434240" d="M22.02 14.497z"/><path fill="#21201F" d="M29.104 14.556a55.555 55.555 0 0 0-.112-.872c-.156.34-.464.663-.925.93-1.4.814-3.68.814-5.09 0-.453-.262-.761-.577-.924-.91a90.392 90.392 0 0 0-.132.878c-.053.573.3 1.155 1.057 1.592 1.41.814 3.689.814 5.09 0 .732-.425 1.08-.99 1.043-1.547h.002l-.009-.07z"/><path fill="#2D2C2B" d="M28.992 13.684c-.06.128-.14.254-.242.375-.168.2-.396.388-.682.555-1.401.814-3.68.814-5.09 0-.454-.262-.762-.576-.925-.91.706-4.513 1.678-7.823 3.019-11.88a.473.473 0 0 1 .896-.003l.09.263c1.375 4.047 2.348 7.313 2.934 11.6z"/><path fill="#434240" d="M28.992 13.684c-.06.128-.14.254-.242.375-1.382.49-3.217.388-4.42-.306a1.643 1.643 0 0 1-.796-1.703c.626-3.707 1.446-6.634 2.524-9.966 1.375 4.047 2.348 7.313 2.934 11.6z"/><path fill="#A2A4A5" d="M21.384 29.381c-.085-.05-.167-.1-.246-.151l-.093 14.539c.088.057.178.114.273.168 1.031.596 2.347.924 3.69.987l.093-14.555c-1.353-.06-2.679-.389-3.717-.988z"/><path fill="#B6B9BA" d="M19.646 26.953 19.58 41.51c-.002.807.487 1.614 1.465 2.26l.093-14.539c-.996-.648-1.494-1.463-1.492-2.277zm5.455 3.416-.092 14.555c1.387.065 2.804-.153 3.972-.655l.093-14.569c-1.166.508-2.583.73-3.973.669z"/><path fill="#909293" d="M29.71 29.381a6.156 6.156 0 0 1-.636.32l-.093 14.568c.231-.1.453-.21.662-.332 1.139-.661 1.709-1.527 1.711-2.394l.066-14.556c-.003.867-.572 1.732-1.71 2.394z"/></svg>