<svg xmlns="http://www.w3.org/2000/svg" enable-background="new 0 0 512 512" viewBox="0 0 512 512"><path fill="#efb338" d="M339.92,221.62l-3.53-61.2c-3.12-54.2-28.11-104.82-69.23-140.27l0,0c-6.41-5.53-15.91-5.53-22.32,0l0,0
	c-41.12,35.45-66.1,86.07-69.23,140.27l-3.53,61.2"/><path fill="#d39629" d="M267.16,20.15L267.16,20.15c-3.9-3.36-8.94-4.67-13.73-3.94l0.4,3.82l0.89,22.86c0.85,21.7,5.94,43.03,15,62.77
	l9.32,20.33c9.96,21.73,15.12,45.34,15.12,69.25v26.38h45.76l-3.53-61.2C333.26,106.22,308.28,55.6,267.16,20.15z"/><polyline fill="#efb338" points="180.29 472.32 180.29 409.55 331.71 409.55 331.71 472.32"/><path fill="#d39629" d="M292.76,436.07l-68.01,2.54c-10.56,0.39-20.39-5.35-25.22-14.75l-1.05-2.05l116.64,1.1l-0.89,1.31
	C309.35,431.36,301.39,435.75,292.76,436.07z"/><path fill="#efb338" d="M256 452.68h83.93c4.61 0 8.34 3.73 8.34 8.34v26.64c0 4.61-3.73 8.34-8.34 8.34H256h-83.93c-4.61 0-8.34-3.73-8.34-8.34v-26.64c0-4.61 3.73-8.34 8.34-8.34H256M256 421.84h-83.93c-4.61 0-8.34-3.73-8.34-8.34V229.96c0-4.61 3.73-8.34 8.34-8.34h167.86c4.61 0 8.34 3.73 8.34 8.34V413.5c0 4.61-3.73 8.34-8.34 8.34H256"/><path fill="#d39629" d="M339.93 221.62h-45.77v110.04c0 14.46-8.23 27.65-21.21 34.02l-14.26 6.99c-9.68 4.74-16.88 13.38-19.79 23.75l-2.84 10.08-3.66 15.34H256h83.93c4.61 0 8.34-3.73 8.34-8.34V229.96C348.27 225.35 344.53 221.62 339.93 221.62zM249.09 452.68l-1.48 10.19c-.5 3.46-2.83 6.38-6.09 7.65l0 0c-2.9 1.13-5.09 3.58-5.87 6.59L230.69 496l116.64 1.23v-44.55H249.09z"/><path d="M340.6,425.09c5.62,0.09,10.78-4.27,11.77-9.87c0.42-2.76,0.63-8.14,0.9-10.9c3.62-51,5.59-102.29,6.63-153.4
	c0.12-5.53,0.26-15.68,0.38-21.08c0.15-9.5-7.1-18.26-16.41-20c-0.53-0.12-1.1-0.2-1.69-0.25c0.77-20.01,1.24-39.96,0.77-59.98
	c-0.02-0.93-0.72-8.53-0.73-9.48c-0.29-3.63-1.07-7.72-1.47-11.35c-7.16-44.49-30.05-86.12-63.62-116.18
	c-1.84-1.76-3.92-3.54-6.11-4.83c-11.77-7.07-26.6-4.92-36.27,4.69c-19.43,17.05-35.61,37.97-46.94,61.21
	c-5.46,10.81-9.74,22.6-13.07,34.24c-0.37,1.34-1.89,7.81-2.32,9.34c-1.58,7.43-2.85,15.17-3.6,22.73
	c-0.14,2.47-0.77,9.1-0.75,11.44c-0.26,19.69,0.37,39.26,1.52,58.93c-0.52,0.06-0.98,0.13-1.33,0.21
	c-8.65,1.66-15.48,9.61-15.7,18.43c0.97,54.38,2.96,109.25,5.99,163.53c0.2,3.76,0.93,14.11,1.11,17.7c0,0,0.18,2.95,0.18,2.95
	c0.06,4.19,2.48,8.34,6.16,10.26c1.49,0.84,3.2,1.26,4.87,1.38c0.33,0.01,0.67,0.01,1,0c0,0,0.21,0,0.47-0.01
	c0.01,0.14,0.02,0.29,0.04,0.43c0.74,7.62,1.55,15.31,2.51,22.99c-0.55-0.02-1.1-0.03-1.65-0.05c-1.25-0.02-3.32-0.21-4.73,0.12
	c-5.75,1-10.32,5.92-11.05,11.9l-0.88,7.25c-0.64,6.01-1.44,12.98-1.93,18.96c-1.22,9.67,6.44,18.95,16.21,19.71
	c28.3,2.03,56.79,2.6,85.15,2.28c27.6-0.29,55.21-1.21,82.76-3.12c4.34-0.03,8.81-1.44,12.03-4.39c4.12-3.61,6.22-9.16,5.59-14.48
	l-0.15-1.72c-0.19-2.19-0.73-8.09-0.93-10.34c-0.24-2.27-0.79-8.15-1.05-10.34c0,0-0.42-3.76-0.42-3.76
	c-0.87-7.55-7.72-12.56-15.07-11.6c-0.34,0.01-0.69,0.02-1.03,0.03c0.74-5.2,1.4-10.4,2.02-15.58
	C339.95,430.75,340.29,427.92,340.6,425.09z M336.25,230.06c0-0.03-0.01-0.05,0-0.08C336.25,229.93,336.25,230,336.25,230.06z
	 M336.15,209.41c-4.92-0.06-9.84-0.1-14.77-0.14l12.88-12.88C334.87,200.73,335.49,205.07,336.15,209.41z M269.4,38.8
	c2.56,2.5,5.06,5.06,7.48,7.69l-17.46,17.46c-0.76-4.45-1.34-8.94-1.72-13.46c0.02-0.02,0.05-0.03,0.07-0.06L269.4,38.8z
	 M280.23,50.22c2.37,2.7,4.67,5.47,6.89,8.29l-23.55,23.54c-1.17-4.01-2.17-8.06-3.02-12.15L280.23,50.22z M290.18,62.51
	c2.17,2.91,4.27,5.87,6.28,8.89l-27.12,27.12c-1.5-3.65-2.87-7.35-4.09-11.08L290.18,62.51z M299.25,75.69
	c1.97,3.12,3.86,6.29,5.66,9.52l-28.68,28.68l-4.25-9.26c-0.18-0.38-0.34-0.77-0.51-1.16L299.25,75.69z M307.4,89.78
	c1.76,3.34,3.43,6.74,5,10.18l-29.22,29.22c-0.6-1.41-1.23-2.82-1.87-4.22l-2.86-6.23L307.4,89.78z M314.56,104.87
	c1.53,3.59,2.96,7.22,4.28,10.9l-29.68,29.68c-1.17-3.78-2.48-7.53-3.93-11.24L314.56,104.87z M330.81,170.54l-34.15,34.15v-9.44
	c0-1.88-0.04-3.76-0.1-5.63L329,157.16C329.62,161.62,330.22,166.08,330.81,170.54z M325.68,139.14c0.82,3.13,1.78,8.53,2.44,11.84
	l-31.92,31.92c-0.33-4.58-0.85-9.12-1.55-13.63l30.85-30.85C325.57,138.65,325.63,138.9,325.68,139.14z M324.11,132.74l-30.49,30.49
	c-0.8-4.14-1.75-8.24-2.86-12.31l29.9-29.9C321.92,124.89,323.07,128.8,324.11,132.74z M331.63,176.78
	c0.59,4.46,1.18,8.93,1.78,13.39l-19.04,19.04c-5.04-0.03-10.08-0.05-15.11-0.06L331.63,176.78z M259.11,29.46
	c0.25,0.2,1.51,1.36,1.75,1.55c0,0,3.91,3.46,4.91,4.34l-8.51,8.51c-0.02-0.36-0.04-0.71-0.05-1.07l-0.56-14.33
	C257.55,28.59,258.4,28.92,259.11,29.46z M184.76,151.32c0.69-3.28,1.65-8.77,2.53-12.01c0.39-1.67,1.27-5.12,1.65-6.79
	c0.99-3.25,1.96-6.8,2.99-10.01c0.53-1.46,2.28-6.79,2.81-8.22c3.88-10.14,8.39-20.34,13.77-29.79
	c9.98-18.04,22.85-34.46,37.69-48.73l5.06-4.63c0.08-0.07,0.26-0.24,0.48-0.44l0.48,12.29c0.82,21.09,5.52,41.54,13.94,60.84
	c0.01,0.03,0.03,0.06,0.04,0.09c0.41,0.93,0.82,1.87,1.24,2.79l9.33,20.33c1.13,2.47,2.19,4.96,3.2,7.47
	c0.01,0.02,0.02,0.05,0.03,0.07c2.11,5.28,3.94,10.64,5.48,16.07c0.03,0.18,0.08,0.35,0.15,0.52c1.61,5.74,2.9,11.55,3.87,17.43
	c0.01,0.15,0.04,0.3,0.08,0.45c1.39,8.6,2.09,17.35,2.09,26.19v13.91c-11.9-0.01-23.8,0.02-35.66,0.07
	c-22.78,0.03-47.88,0.45-70.8,0.73c-1.83,0.09-5.59,0.06-9.2,0.11C179.4,190.51,181.81,170.88,184.76,151.32z M174.93,229.97
	c0.01,0.07-0.01,0.13-0.01,0.2C174.92,230.08,174.92,229.98,174.93,229.97z M172.93,487.66c-0.02-0.05-0.02-0.26-0.04-0.38
	l-0.07-0.86c0-0.05-0.01-0.09-0.01-0.14C173.14,486.69,173.27,487.28,172.93,487.66z M338.76,456.73c2.75-0.18,4.46,2.04,3.87,4.28
	c-0.08,0.73-0.25,2.26-0.33,2.99c-0.79,7.29-1.57,15.98-2.2,23.28c-0.01,0.12-0.02,0.33-0.04,0.39l-0.04,0.01
	c-0.45,0-0.49-0.69-0.08-0.87c-55.63-3.61-111.52-4.73-167.17-1.05c-0.75-8.07-1.62-16.72-2.66-24.74c-0.57-1.01-0.05-2.6,1.04-3.31
	c0.45-0.28,0.68-0.55,2.11-0.51l27.59-0.82c18.39-0.57,36.78-1.17,55.17-1.9c0,0,0,0,0,0C282.63,455.3,311.96,456.08,338.76,456.73z
	 M185.63,448.55c1-7.94,1.87-15.95,2.62-23.95c21.73-0.3,50.42-0.72,67.75-0.97c16.98,0.31,45.21,0.81,66.8,1.17
	c0.81,8.08,1.78,16.17,2.95,24.17c-23.07,0.59-47.42,1.21-69.75,1.93c0,0,0,0,0,0C233.42,449.99,208.9,449.25,185.63,448.55z
	 M256,420.06c0,0-47.2-0.69-47.2-0.69c-7.63-0.09-28.07-0.4-35.4-0.48c-0.84-0.02-1.59,0.04-2.35-0.24
	c-1.95-0.62-3.48-2.51-3.48-4.52c-0.02-0.13,0-0.27,0.01-0.4l0.03-0.55l0.18-2.95l0.37-5.9c3.42-54.83,5.31-110.25,6.56-165.2
	l0.12-5.9l0-0.11c38.81,0.64,77.86,1.02,116.8,0.96v97.57c0,13.4-7.78,25.87-19.81,31.77l-14.26,6.99
	c-10.3,5.05-17.99,14.28-21.1,25.32l-2.84,10.08c-0.37,1.33,0.4,2.71,1.73,3.08c0.23,0.06,0.45,0.09,0.68,0.09
	c1.09,0,2.09-0.72,2.41-1.82l2.84-10.08c2.72-9.68,9.46-17.76,18.49-22.19l14.26-6.99c13.74-6.73,22.61-20.96,22.61-36.26v-97.57
	c13.24-0.03,26.46-0.12,39.66-0.26c0.89,52.88,2.65,105.93,6.13,158.7c0.29,3.75,0.92,14.13,1.25,17.7
	c0.02,0.43,0.28,3.57,0.28,3.84c0.11,2.03-1.54,3.92-3.53,4.42C318.21,419.14,278.62,419.54,256,420.06z"/><path fill="#fff" d="M212.97 107.6c-4.29 12.74-8.21 25.53-11.18 38.61-3.91 16.81-6.21 33.8-8.83 50.9-.03.2-.21.33-.41.3-.16-.03-.29-.16-.3-.32-2.05-23.27 2.05-46.89 10.15-68.72 2.76-7.27 5.99-14.37 9.92-21.06C212.51 106.95 213.11 107.19 212.97 107.6L212.97 107.6zM239.77 65.63c-3.78 7.2-7.91 13.62-12.84 19.92-1.74 2.08-3.48 4.1-5.64 5.84-.17.13-.4.1-.53-.06.05-2.7 1.51-5.69 2.55-8.08 3.72-7.2 8.95-13.84 15.96-18.12C239.57 64.94 239.96 65.32 239.77 65.63L239.77 65.63zM324.38 244.98c1.82 15.83 2.71 31.87 3.36 47.77.65 15.97 1 31.89.04 47.88-.01.2-.18.35-.38.34-.17-.01-.3-.14-.33-.29-3.8-21.69-4.41-43.75-4.51-65.72.08-9.94.27-20.05 1.1-29.96.02-.2.19-.34.39-.33C324.22 244.68 324.36 244.82 324.38 244.98L324.38 244.98z"/></svg>