<svg xmlns="http://www.w3.org/2000/svg" enable-background="new 0 0 496.002 496" viewBox="0 0 496.002 496"><path fill="#89a25b" d="M182.701 358.74l-6.83-30.28-113.8 61.11v37.96c44.972-4.688 86.092-19.286 121.36-48.94C189.584 372.785 189.763 366.221 182.701 358.74zM320.131 328.46l-6.83 30.28c-4.422 6.589-4.608 13.206-.73 19.85 38.71 22.585 79.274 38.502 121.36 48.94v-37.96L320.131 328.46z"/><path fill="#655f68" d="M433.931 427.53v15.36l-104.34-.94-18.6-20.56c-6.425-13.434-5.552-27.742 1.58-42.8L433.931 427.53zM183.431 378.59c7.16 14.865 8.336 29.19 1.58 42.8l-18.6 20.56-104.34.94v-15.36L183.431 378.59z"/><path fill="#cdc7b9" d="M476.271,250.7l-164.77-94.31c-9.82-5.62-16.44-15.44-17.93-26.57l-10.03-75.25
		c-1.35-10.1-5.02-19.75-10.74-28.22l-13.91-20.59c-5.19-7.68-16.59-7.68-21.78,0l-13.91,20.59c-5.72,8.47-9.39,18.12-10.74,28.22
		l-10.03,75.25c-1.49,11.13-8.11,20.95-17.93,26.57L19.731,250.7c-5.945,19.601-3.807,37.004,5.9,52.35h151.47h0.06l12.378,28.297
		l40.512,57.133h35.9c22.956-27.23,42.51-55.256,52.89-85.43h0.06h151.47C480.301,287.438,481.56,269.825,476.271,250.7z"/><path fill="#d6eae8" d="M262.991,51.09v71.6c0,5.7-4.62,10.31-10.31,10.31h-9.36c-5.69,0-10.31-4.61-10.31-10.31v-71.6
		c0-5.69,4.62-10.31,10.31-10.31h9.36C258.371,40.78,262.991,45.4,262.991,51.09z"/><polygon fill="#e15c63" points="400.201 265.83 385.471 267.91 379.161 282.49 372.851 263.75 353.921 257.5 368.651 251.25 370.751 236.67 379.161 245 395.991 240.84 391.791 257.5"/><polygon fill="#e15c63" points="142.081 257.5 123.151 263.75 116.841 282.49 110.531 267.91 95.801 265.83 104.211 257.5 100.011 240.84 116.841 245 125.251 236.67 127.351 251.25"/><path fill="#ad6a6a" d="M230.101 446.77c11.883-7.04 23.821-6.978 35.81 0-.11 6.78-.45 13.28-1.56 19.45-10.938 5.672-21.802 5.752-32.59 0l-.11.02c-1.11-6.18-1.45-12.68-1.56-19.47L230.101 446.77zM313.301 358.74l-.73 19.85-1.58 42.8-.62 16.86c-.31 8.18-7.09 14.66-15.37 14.66h-13.68c-8.49 0-15.37-6.81-15.37-15.22-8.379-17.376-9.518-33.912 0-49.21V354.4c0-10.45 7.35-19.48 17.66-21.69l19.84-4.25h.01l1.14 22.46c.22 4.39 3.87 7.83 8.31 7.83C313.041 358.75 313.171 358.75 313.301 358.74zM230.051 388.48c7.912 17.928 6.966 34.149 0 49.21 0 8.41-6.88 15.22-15.37 15.22h-13.68c-8.28 0-15.06-6.48-15.37-14.66l-.62-16.86-1.58-42.8-.73-19.85c.13.01.26.01.39.01 4.44 0 8.09-3.44 8.31-7.83l1.14-22.46h.01l19.84 4.25c10.31 2.21 17.66 11.24 17.66 21.69V388.48z"/><path fill="#655f68" d="M231.761 466.22h32.59c-1.97 11.04-6.41 21.05-16.35 29.78-9.93-8.72-14.37-18.73-16.35-29.76L231.761 466.22zM265.951 388.48v49.21c0 3.08 0 6.11-.04 9.08h-35.81-.01c-.04-2.97-.04-6-.04-9.08v-49.21c0 0 0-29.73 17.95-29.73S265.951 388.48 265.951 388.48zM495.921 303.05c.85 7.54-5.11 14.14-12.78 14.14-7.17 0-12.85-5.78-12.85-12.71 0-.47.03-.95.08-1.43l5.9-52.35 6.87-61.01L495.921 303.05zM25.631 303.05c.05.48.08.96.08 1.43 0 6.93-5.68 12.71-12.85 12.71-7.67 0-13.63-6.6-12.78-14.14l12.78-113.36 6.87 61.01L25.631 303.05zM189.681 220.71c4.59.23 8.13 4.11 7.9 8.65l-5.04 99.1-1.14 22.46c-.22 4.39-3.87 7.83-8.31 7.83-.13 0-.26 0-.39-.01-4.62-.23-8.16-4.11-7.93-8.65l1.1-21.63 1.29-25.41 3.79-74.52c.22-4.39 3.88-7.83 8.32-7.83C189.401 220.7 189.541 220.71 189.681 220.71zM313.301 358.74c-.13.01-.26.01-.39.01-4.44 0-8.09-3.44-8.31-7.83l-1.14-22.46-5.04-99.1c-.23-4.54 3.31-8.42 7.9-8.65.14 0 .28-.01.41-.01 4.44 0 8.1 3.44 8.32 7.83l3.79 74.52 1.29 25.41 1.1 21.63C321.461 354.63 317.921 358.51 313.301 358.74z"/><path fill="#bfbaaf" d="M180.951 228.53l-3.79 74.52h-.06H25.631l-1.5-13.33C24.131 289.72 166.411 303.05 180.951 228.53zM471.871 289.72l-1.5 13.33h-151.47-.06l-3.79-74.52C315.051 228.53 350.351 311.04 471.871 289.72z"/><path fill="#7f9354" d="M336.881,337.45l-3.46,49.55l-20.85-8.41l0.73-19.85c4.62-0.23,8.16-4.11,7.93-8.65l-1.1-21.63
		L336.881,337.45z"/><polygon fill="#5d5560" points="333.421 387 329.591 441.95 310.991 421.39 312.571 378.59"/><polygon fill="#5d5560" points="183.431 378.59 185.011 421.39 166.411 441.95 162.581 387"/><path fill="#7f9354" d="M174.771,350.09c-0.23,4.54,3.31,8.42,7.93,8.65l0.73,19.85l-20.85,8.41l-3.46-49.55l16.75-8.99
		L174.771,350.09z"/><path fill="#ad6a6a" d="M192.124,172.755c-2.208-0.126-4.086,1.584-4.198,3.791l-2.24,43.96
		c-0.113,2.207,1.585,4.086,3.791,4.198c0.069,0.004,0.138,0.005,0.207,0.005c2.116,0,3.882-1.66,3.991-3.796l2.24-43.96
		C196.028,174.747,194.33,172.868,192.124,172.755z"/><path fill="#bfbaaf" d="M219.216,244.125c-0.626-2.118-2.85-3.328-4.97-2.701c-2.118,0.626-3.328,2.852-2.701,4.97
		l10.39,35.119c2.731,9.242,4.116,18.81,4.116,28.437v27.45c0,2.209,1.791,4,4,4s4-1.791,4-4v-27.45
		c0-10.395-1.495-20.726-4.444-30.705L219.216,244.125z"/><path fill="#ad6a6a" d="M308.076,176.546c-0.113-2.207-1.993-3.919-4.198-3.791c-2.206,0.112-3.904,1.992-3.791,4.198
		l2.24,43.96c0.109,2.137,1.875,3.796,3.991,3.796c0.068,0,0.138-0.001,0.207-0.005c2.206-0.112,3.904-1.992,3.791-4.198
		L308.076,176.546z"/><path fill="#bfbaaf" d="M281.756,241.424c-2.122-0.628-4.344,0.583-4.97,2.701l-10.391,35.121
		c-2.949,9.979-4.444,20.31-4.444,30.704v27.45c0,2.209,1.791,4,4,4s4-1.791,4-4v-27.45c0-9.627,1.385-19.194,4.115-28.436
		l10.39-35.12C285.083,244.276,283.874,242.051,281.756,241.424z"/></svg>